<?xml version="1.0" encoding="utf-8"?>
<!-- Generator: Adobe Illustrator 28.1.0, SVG Export Plug-In . SVG Version: 6.00 Build 0)  -->
<svg version="1.1" id="レイヤー_1" xmlns="http://www.w3.org/2000/svg" xmlns:xlink="http://www.w3.org/1999/xlink" x="0px"
	 y="0px" viewBox="0 0 300 300" style="enable-background:new 0 0 300 300;" xml:space="preserve">
<style type="text/css">
	.st0{fill:#00428D;}
	.st1{fill:none;}
	.st2{fill:#CC5D00;}
</style>
<g>
	<polygon class="st0" points="289.2,100.2 231.5,200.1 173.7,300 184.8,300 242.6,200.1 300.4,100.2 	"/>
	<path class="st1" d="M202.6,150.3l-28.9-50l-28.9,50c8.5,4.9,18.4,7.7,28.9,7.7C184.2,158,194.1,155.2,202.6,150.3z"/>
	<polygon class="st0" points="0.4,200.3 115.9,200.3 58.1,100.2 	"/>
	<path class="st2" d="M202.6,150.3c17.3-10,28.9-28.6,28.9-50c0-31.9-25.9-57.8-57.8-57.8c-31.9,0-57.8,25.9-57.8,57.8
		c0,21.4,11.6,40,28.9,50l28.9-50L202.6,150.3z"/>
	<path class="st0" d="M173.7,158c-10.5,0-20.4-2.8-28.9-7.7l-28.9,50h115.6l-28.9-50C194.1,155.2,184.2,158,173.7,158z"/>
</g>
</svg>
